  0
SECTION
  2
HEADER
  9
$ACADVER
  1
AC1009
  9
$FILLMODE
 70
1
  9
$EXTMIN
 10
17.6809
 20
46.8909
 30
0.0000
  9
$EXTMAX
 10
106.7791
 20
87.7291
 30
0.0000
  0
ENDSEC
  0
SECTION
  2
TABLES
  0
TABLE
  2
LTYPE
 70
1
  0
LTYPE
  2
CONTINUOUS
 70
64
  3
Solid line
 72
65
 73
0
 40
0
  0
ENDTAB
  0
TABLE
  2
LAYER
 70
255
  0
LAYER
  2
17
 70
64
 62
110
  6
CONTINUOUS
  0
LAYER
  2
18
 70
64
 62
110
  6
CONTINUOUS
  0
LAYER
  2
20
 70
64
 62
31
  6
CONTINUOUS
  0
LAYER
  2
45
 70
64
 62
253
  6
CONTINUOUS
  0
ENDTAB
  0
ENDSEC
  0
SECTION
  2
BLOCKS
  0
BLOCK
  8
0
  2
RECT
 70
64
 10
0.0000
 20
0.0000
 30
0.0000
  3
RECT
  0
SOLID
  8
0
 10
-0.5000
 20
-0.5000
 30
0.0000
 11
0.5000
 21
-0.5000
 31
0.0000
 12
-0.5000
 22
0.5000
 32
0.0000
 13
0.5000
 23
0.5000
 33
0.0000
  0
ENDBLK
  8
0
  0
BLOCK
  8
0
  2
PIE
 70
64
 10
0.0000
 20
0.0000
 30
0.0000
  3
PIE
  0
POLYLINE
  8
0
 66
1
 10
0.0000
 20
0.0000
 30
0.0000
 40
0.5000
 41
0.5000
 70
0
  0
VERTEX
  8
0
 10
0.0000
 20
-0.2500
 30
0.0000
 42
1.0000
  0
VERTEX
  8
0
 10
0.0000
 20
0.2500
 30
0.0000
 42
1.0000
  0
VERTEX
  8
0
 10
0.0000
 20
-0.2500
 30
0.0000
  0
SEQEND
  8
0
  0
ENDBLK
  8
0
  0
BLOCK
  8
0
  2
OCTAGONP
 70
64
 10
0.0000
 20
0.0000
 30
0.0000
  3
OCTAGONP
  0
POLYLINE
  8
0
 66
1
 10
0.0000
 20
0.0000
 30
0.0000
 40
0.5000
 41
0.5000
 70
0
  0
VERTEX
  8
0
 10
-0.2500
 20
-0.1036
 30
0.0000
  0
VERTEX
  8
0
 10
-0.2500
 20
0.1036
 30
0.0000
  0
VERTEX
  8
0
 10
-0.1036
 20
0.2500
 30
0.0000
  0
VERTEX
  8
0
 10
0.1036
 20
0.2500
 30
0.0000
  0
VERTEX
  8
0
 10
0.2500
 20
0.1036
 30
0.0000
  0
VERTEX
  8
0
 10
0.2500
 20
-0.1036
 30
0.0000
  0
VERTEX
  8
0
 10
0.1036
 20
-0.2500
 30
0.0000
  0
VERTEX
  8
0
 10
-0.1036
 20
-0.2500
 30
0.0000
  0
VERTEX
  8
0
 10
-0.2500
 20
-0.1036
 30
0.0000
  0
VERTEX
  8
0
 10
-0.2500
 20
0.1036
 30
0.0000
  0
SEQEND
  8
0
  0
ENDBLK
  8
0
  0
BLOCK
  8
0
  2
SQUAREP
 70
64
 10
0.0000
 20
0.0000
 30
0.0000
  3
SQUAREP
  0
SOLID
  8
0
 10
-0.5000
 20
-0.5000
 30
0.0000
 11
0.5000
 21
-0.5000
 31
0.0000
 12
-0.5000
 22
0.5000
 32
0.0000
 13
0.5000
 23
0.5000
 33
0.0000
  0
ENDBLK
  8
0
  0
BLOCK
  8
0
  2
ROUNDP
 70
64
 10
0.0000
 20
0.0000
 30
0.0000
  3
ROUNDP
  0
POLYLINE
  8
0
 66
1
 10
0.0000
 20
0.0000
 30
0.0000
 40
0.5000
 41
0.5000
 70
0
  0
VERTEX
  8
0
 10
0.0000
 20
-0.2500
 30
0.0000
 42
1.0000
  0
VERTEX
  8
0
 10
0.0000
 20
0.2500
 30
0.0000
 42
1.0000
  0
VERTEX
  8
0
 10
0.0000
 20
-0.2500
 30
0.0000
  0
SEQEND
  8
0
  0
ENDBLK
  8
0
  0
BLOCK
  8
0
  2
ANNULUSP
 70
64
 10
0.0000
 20
0.0000
 30
0.0000
  3
ANNULUSP
  0
POLYLINE
  8
0
 66
1
 10
0.0000
 20
0.0000
 30
0.0000
 40
0.5000
 41
0.5000
 70
0
  0
VERTEX
  8
0
 10
0.0000
 20
-0.2500
 30
0.0000
 42
1.0000
  0
VERTEX
  8
0
 10
0.0000
 20
0.2500
 30
0.0000
 42
1.0000
  0
VERTEX
  8
0
 10
0.0000
 20
-0.2500
 30
0.0000
  0
SEQEND
  8
0
  0
ENDBLK
  8
0
  0
BLOCK
  8
0
  2
THERMALP
 70
64
 10
0.0000
 20
0.0000
 30
0.0000
  3
THERMALP
  0
POLYLINE
  8
0
 66
1
 10
0.0000
 20
0.0000
 30
0.0000
 40
0.1000
 41
0.1000
 70
0
  0
VERTEX
  8
0
 10
-0.2379
 20
0.4500
 30
0.0000
  0
VERTEX
  8
0
 10
0.2379
 20
0.4500
 30
0.0000
  0
SEQEND
  8
0
  0
POLYLINE
  8
0
 66
1
 10
0.0000
 20
0.0000
 30
0.0000
 40
0.0500
 41
0.0500
 70
0
  0
VERTEX
  8
0
 10
0.2379
 20
0.4250
 30
0.0000
 42
1.0000
  0
VERTEX
  8
0
 10
0.2379
 20
0.4750
 30
0.0000
  0
SEQEND
  8
0
  0
POLYLINE
  8
0
 66
1
 10
0.0000
 20
0.0000
 30
0.0000
 40
0.0500
 41
0.0500
 70
0
  0
VERTEX
  8
0
 10
-0.2379
 20
0.4750
 30
0.0000
 42
1.0000
  0
VERTEX
  8
0
 10
-0.2379
 20
0.4250
 30
0.0000
  0
SEQEND
  8
0
  0
POLYLINE
  8
0
 66
1
 10
0.0000
 20
0.0000
 30
0.0000
 40
0.1000
 41
0.1000
 70
0
  0
VERTEX
  8
0
 10
0.4500
 20
0.2379
 30
0.0000
  0
VERTEX
  8
0
 10
0.4500
 20
-0.2379
 30
0.0000
  0
SEQEND
  8
0
  0
POLYLINE
  8
0
 66
1
 10
0.0000
 20
0.0000
 30
0.0000
 40
0.0500
 41
0.0500
 70
0
  0
VERTEX
  8
0
 10
0.4250
 20
-0.2379
 30
0.0000
 42
1.0000
  0
VERTEX
  8
0
 10
0.4750
 20
-0.2379
 30
0.0000
  0
SEQEND
  8
0
  0
POLYLINE
  8
0
 66
1
 10
0.0000
 20
0.0000
 30
0.0000
 40
0.0500
 41
0.0500
 70
0
  0
VERTEX
  8
0
 10
0.4750
 20
0.2379
 30
0.0000
 42
1.0000
  0
VERTEX
  8
0
 10
0.4250
 20
0.2379
 30
0.0000
  0
SEQEND
  8
0
  0
POLYLINE
  8
0
 66
1
 10
0.0000
 20
0.0000
 30
0.0000
 40
0.1000
 41
0.1000
 70
0
  0
VERTEX
  8
0
 10
0.2379
 20
-0.4500
 30
0.0000
  0
VERTEX
  8
0
 10
-0.2379
 20
-0.4500
 30
0.0000
  0
SEQEND
  8
0
  0
POLYLINE
  8
0
 66
1
 10
0.0000
 20
0.0000
 30
0.0000
 40
0.0500
 41
0.0500
 70
0
  0
VERTEX
  8
0
 10
-0.2379
 20
-0.4250
 30
0.0000
 42
1.0000
  0
VERTEX
  8
0
 10
-0.2379
 20
-0.4750
 30
0.0000
  0
SEQEND
  8
0
  0
POLYLINE
  8
0
 66
1
 10
0.0000
 20
0.0000
 30
0.0000
 40
0.0500
 41
0.0500
 70
0
  0
VERTEX
  8
0
 10
0.2379
 20
-0.4750
 30
0.0000
 42
1.0000
  0
VERTEX
  8
0
 10
0.2379
 20
-0.4250
 30
0.0000
  0
SEQEND
  8
0
  0
POLYLINE
  8
0
 66
1
 10
0.0000
 20
0.0000
 30
0.0000
 40
0.1000
 41
0.1000
 70
0
  0
VERTEX
  8
0
 10
-0.4500
 20
-0.2379
 30
0.0000
  0
VERTEX
  8
0
 10
-0.4500
 20
0.2379
 30
0.0000
  0
SEQEND
  8
0
  0
POLYLINE
  8
0
 66
1
 10
0.0000
 20
0.0000
 30
0.0000
 40
0.0500
 41
0.0500
 70
0
  0
VERTEX
  8
0
 10
-0.4250
 20
0.2379
 30
0.0000
 42
1.0000
  0
VERTEX
  8
0
 10
-0.4750
 20
0.2379
 30
0.0000
  0
SEQEND
  8
0
  0
POLYLINE
  8
0
 66
1
 10
0.0000
 20
0.0000
 30
0.0000
 40
0.0500
 41
0.0500
 70
0
  0
VERTEX
  8
0
 10
-0.4750
 20
-0.2379
 30
0.0000
 42
1.0000
  0
VERTEX
  8
0
 10
-0.4250
 20
-0.2379
 30
0.0000
  0
SEQEND
  8
0
  0
ENDBLK
  8
0
  0
BLOCK
  8
0
  2
OCTAGONV
 70
64
 10
0.0000
 20
0.0000
 30
0.0000
  3
OCTAGONV
  0
POLYLINE
  8
0
 66
1
 10
0.0000
 20
0.0000
 30
0.0000
 40
0.5000
 41
0.5000
 70
0
  0
VERTEX
  8
0
 10
-0.2500
 20
-0.1036
 30
0.0000
  0
VERTEX
  8
0
 10
-0.2500
 20
0.1036
 30
0.0000
  0
VERTEX
  8
0
 10
-0.1036
 20
0.2500
 30
0.0000
  0
VERTEX
  8
0
 10
0.1036
 20
0.2500
 30
0.0000
  0
VERTEX
  8
0
 10
0.2500
 20
0.1036
 30
0.0000
  0
VERTEX
  8
0
 10
0.2500
 20
-0.1036
 30
0.0000
  0
VERTEX
  8
0
 10
0.1036
 20
-0.2500
 30
0.0000
  0
VERTEX
  8
0
 10
-0.1036
 20
-0.2500
 30
0.0000
  0
VERTEX
  8
0
 10
-0.2500
 20
-0.1036
 30
0.0000
  0
VERTEX
  8
0
 10
-0.2500
 20
0.1036
 30
0.0000
  0
SEQEND
  8
0
  0
ENDBLK
  8
0
  0
BLOCK
  8
0
  2
SQUAREV
 70
64
 10
0.0000
 20
0.0000
 30
0.0000
  3
SQUAREV
  0
SOLID
  8
0
 10
-0.5000
 20
-0.5000
 30
0.0000
 11
0.5000
 21
-0.5000
 31
0.0000
 12
-0.5000
 22
0.5000
 32
0.0000
 13
0.5000
 23
0.5000
 33
0.0000
  0
ENDBLK
  8
0
  0
BLOCK
  8
0
  2
ROUNDV
 70
64
 10
0.0000
 20
0.0000
 30
0.0000
  3
ROUNDV
  0
POLYLINE
  8
0
 66
1
 10
0.0000
 20
0.0000
 30
0.0000
 40
0.5000
 41
0.5000
 70
0
  0
VERTEX
  8
0
 10
0.0000
 20
-0.2500
 30
0.0000
 42
1.0000
  0
VERTEX
  8
0
 10
0.0000
 20
0.2500
 30
0.0000
 42
1.0000
  0
VERTEX
  8
0
 10
0.0000
 20
-0.2500
 30
0.0000
  0
SEQEND
  8
0
  0
ENDBLK
  8
0
  0
BLOCK
  8
0
  2
ANNULUSV
 70
64
 10
0.0000
 20
0.0000
 30
0.0000
  3
ANNULUSV
  0
POLYLINE
  8
0
 66
1
 10
0.0000
 20
0.0000
 30
0.0000
 40
0.5000
 41
0.5000
 70
0
  0
VERTEX
  8
0
 10
0.0000
 20
-0.2500
 30
0.0000
 42
1.0000
  0
VERTEX
  8
0
 10
0.0000
 20
0.2500
 30
0.0000
 42
1.0000
  0
VERTEX
  8
0
 10
0.0000
 20
-0.2500
 30
0.0000
  0
SEQEND
  8
0
  0
ENDBLK
  8
0
  0
BLOCK
  8
0
  2
THERMALV
 70
64
 10
0.0000
 20
0.0000
 30
0.0000
  3
THERMALV
  0
POLYLINE
  8
0
 66
1
 10
0.0000
 20
0.0000
 30
0.0000
 40
0.1000
 41
0.1000
 70
0
  0
VERTEX
  8
0
 10
-0.2379
 20
0.4500
 30
0.0000
  0
VERTEX
  8
0
 10
0.2379
 20
0.4500
 30
0.0000
  0
SEQEND
  8
0
  0
POLYLINE
  8
0
 66
1
 10
0.0000
 20
0.0000
 30
0.0000
 40
0.0500
 41
0.0500
 70
0
  0
VERTEX
  8
0
 10
0.2379
 20
0.4250
 30
0.0000
 42
1.0000
  0
VERTEX
  8
0
 10
0.2379
 20
0.4750
 30
0.0000
  0
SEQEND
  8
0
  0
POLYLINE
  8
0
 66
1
 10
0.0000
 20
0.0000
 30
0.0000
 40
0.0500
 41
0.0500
 70
0
  0
VERTEX
  8
0
 10
-0.2379
 20
0.4750
 30
0.0000
 42
1.0000
  0
VERTEX
  8
0
 10
-0.2379
 20
0.4250
 30
0.0000
  0
SEQEND
  8
0
  0
POLYLINE
  8
0
 66
1
 10
0.0000
 20
0.0000
 30
0.0000
 40
0.1000
 41
0.1000
 70
0
  0
VERTEX
  8
0
 10
0.4500
 20
0.2379
 30
0.0000
  0
VERTEX
  8
0
 10
0.4500
 20
-0.2379
 30
0.0000
  0
SEQEND
  8
0
  0
POLYLINE
  8
0
 66
1
 10
0.0000
 20
0.0000
 30
0.0000
 40
0.0500
 41
0.0500
 70
0
  0
VERTEX
  8
0
 10
0.4250
 20
-0.2379
 30
0.0000
 42
1.0000
  0
VERTEX
  8
0
 10
0.4750
 20
-0.2379
 30
0.0000
  0
SEQEND
  8
0
  0
POLYLINE
  8
0
 66
1
 10
0.0000
 20
0.0000
 30
0.0000
 40
0.0500
 41
0.0500
 70
0
  0
VERTEX
  8
0
 10
0.4750
 20
0.2379
 30
0.0000
 42
1.0000
  0
VERTEX
  8
0
 10
0.4250
 20
0.2379
 30
0.0000
  0
SEQEND
  8
0
  0
POLYLINE
  8
0
 66
1
 10
0.0000
 20
0.0000
 30
0.0000
 40
0.1000
 41
0.1000
 70
0
  0
VERTEX
  8
0
 10
0.2379
 20
-0.4500
 30
0.0000
  0
VERTEX
  8
0
 10
-0.2379
 20
-0.4500
 30
0.0000
  0
SEQEND
  8
0
  0
POLYLINE
  8
0
 66
1
 10
0.0000
 20
0.0000
 30
0.0000
 40
0.0500
 41
0.0500
 70
0
  0
VERTEX
  8
0
 10
-0.2379
 20
-0.4250
 30
0.0000
 42
1.0000
  0
VERTEX
  8
0
 10
-0.2379
 20
-0.4750
 30
0.0000
  0
SEQEND
  8
0
  0
POLYLINE
  8
0
 66
1
 10
0.0000
 20
0.0000
 30
0.0000
 40
0.0500
 41
0.0500
 70
0
  0
VERTEX
  8
0
 10
0.2379
 20
-0.4750
 30
0.0000
 42
1.0000
  0
VERTEX
  8
0
 10
0.2379
 20
-0.4250
 30
0.0000
  0
SEQEND
  8
0
  0
POLYLINE
  8
0
 66
1
 10
0.0000
 20
0.0000
 30
0.0000
 40
0.1000
 41
0.1000
 70
0
  0
VERTEX
  8
0
 10
-0.4500
 20
-0.2379
 30
0.0000
  0
VERTEX
  8
0
 10
-0.4500
 20
0.2379
 30
0.0000
  0
SEQEND
  8
0
  0
POLYLINE
  8
0
 66
1
 10
0.0000
 20
0.0000
 30
0.0000
 40
0.0500
 41
0.0500
 70
0
  0
VERTEX
  8
0
 10
-0.4250
 20
0.2379
 30
0.0000
 42
1.0000
  0
VERTEX
  8
0
 10
-0.4750
 20
0.2379
 30
0.0000
  0
SEQEND
  8
0
  0
POLYLINE
  8
0
 66
1
 10
0.0000
 20
0.0000
 30
0.0000
 40
0.0500
 41
0.0500
 70
0
  0
VERTEX
  8
0
 10
-0.4750
 20
-0.2379
 30
0.0000
 42
1.0000
  0
VERTEX
  8
0
 10
-0.4250
 20
-0.2379
 30
0.0000
  0
SEQEND
  8
0
  0
ENDBLK
  8
0
  0
BLOCK
  8
0
  2
LONGP100
 70
64
 10
0.0000
 20
0.0000
 30
0.0000
  3
LONGP100
  0
POLYLINE
  8
0
 66
1
 10
0.0000
 20
0.0000
 30
0.0000
 40
1.0000
 41
1.0000
 70
0
  0
VERTEX
  8
0
 10
-0.5000
 20
0.0000
 30
0.0000
  0
VERTEX
  8
0
 10
0.5000
 20
0.0000
 30
0.0000
  0
SEQEND
  8
0
  0
POLYLINE
  8
0
 66
1
 10
0.0000
 20
0.0000
 30
0.0000
 40
0.5000
 41
0.5000
 70
0
  0
VERTEX
  8
0
 10
0.5000
 20
-0.2500
 30
0.0000
 42
1.0000
  0
VERTEX
  8
0
 10
0.5000
 20
0.2500
 30
0.0000
  0
SEQEND
  8
0
  0
POLYLINE
  8
0
 66
1
 10
0.0000
 20
0.0000
 30
0.0000
 40
0.5000
 41
0.5000
 70
0
  0
VERTEX
  8
0
 10
-0.5000
 20
0.2500
 30
0.0000
 42
1.0000
  0
VERTEX
  8
0
 10
-0.5000
 20
-0.2500
 30
0.0000
  0
SEQEND
  8
0
  0
ENDBLK
  8
0
  0
ENDSEC
  0
SECTION
  2
ENTITIES
  0
LINE
  8
20
 10
25.4000
 20
48.2600
 30
0.0000
 11
98.7300
 21
48.2600
 31
0.0000
  0
LINE
  8
20
 10
98.7300
 20
48.2600
 30
0.0000
 11
98.7300
 21
87.6200
 31
0.0000
  0
LINE
  8
20
 10
98.7300
 20
87.6200
 30
0.0000
 11
25.4000
 21
87.6200
 31
0.0000
  0
LINE
  8
20
 10
25.4000
 20
87.6200
 30
0.0000
 11
25.4000
 21
48.2600
 31
0.0000
  0
INSERT
  8
17
  2
ROUNDP
 10
94.1070
 20
53.5940
 30
0.0000
 41
5.8420
 42
5.8420
 43
1.0000
 50
0.0000
  0
INSERT
  8
17
  2
ROUNDP
 10
94.1070
 20
53.5940
 30
0.0000
 41
5.8420
 42
5.8420
 43
1.0000
 50
0.0000
  0
INSERT
  8
17
  2
ROUNDP
 10
93.9800
 20
83.0580
 30
0.0000
 41
5.8420
 42
5.8420
 43
1.0000
 50
0.0000
  0
INSERT
  8
17
  2
ROUNDP
 10
93.9800
 20
83.0580
 30
0.0000
 41
5.8420
 42
5.8420
 43
1.0000
 50
0.0000
  0
INSERT
  8
17
  2
ROUNDP
 10
30.4800
 20
53.3400
 30
0.0000
 41
5.8420
 42
5.8420
 43
1.0000
 50
0.0000
  0
INSERT
  8
17
  2
ROUNDP
 10
30.4800
 20
53.3400
 30
0.0000
 41
5.8420
 42
5.8420
 43
1.0000
 50
0.0000
  0
INSERT
  8
17
  2
ROUNDP
 10
30.4800
 20
82.5500
 30
0.0000
 41
5.8420
 42
5.8420
 43
1.0000
 50
0.0000
  0
INSERT
  8
17
  2
ROUNDP
 10
30.4800
 20
82.5500
 30
0.0000
 41
5.8420
 42
5.8420
 43
1.0000
 50
0.0000
  0
INSERT
  8
17
  2
ROUNDP
 10
53.3400
 20
57.1500
 30
0.0000
 41
1.6650
 42
1.6650
 43
1.0000
 50
90.0000
  0
INSERT
  8
17
  2
ROUNDP
 10
53.3400
 20
57.1500
 30
0.0000
 41
1.6650
 42
1.6650
 43
1.0000
 50
90.0000
  0
INSERT
  8
17
  2
ROUNDP
 10
53.3400
 20
59.6900
 30
0.0000
 41
1.6650
 42
1.6650
 43
1.0000
 50
90.0000
  0
INSERT
  8
17
  2
ROUNDP
 10
53.3400
 20
59.6900
 30
0.0000
 41
1.6650
 42
1.6650
 43
1.0000
 50
90.0000
  0
INSERT
  8
17
  2
ROUNDP
 10
53.3400
 20
62.2300
 30
0.0000
 41
1.6650
 42
1.6650
 43
1.0000
 50
90.0000
  0
INSERT
  8
17
  2
ROUNDP
 10
53.3400
 20
62.2300
 30
0.0000
 41
1.6650
 42
1.6650
 43
1.0000
 50
90.0000
  0
INSERT
  8
17
  2
ROUNDP
 10
53.3400
 20
64.7700
 30
0.0000
 41
1.6650
 42
1.6650
 43
1.0000
 50
90.0000
  0
INSERT
  8
17
  2
ROUNDP
 10
53.3400
 20
64.7700
 30
0.0000
 41
1.6650
 42
1.6650
 43
1.0000
 50
90.0000
  0
INSERT
  8
17
  2
ROUNDP
 10
53.3400
 20
67.3100
 30
0.0000
 41
1.6650
 42
1.6650
 43
1.0000
 50
90.0000
  0
INSERT
  8
17
  2
ROUNDP
 10
53.3400
 20
67.3100
 30
0.0000
 41
1.6650
 42
1.6650
 43
1.0000
 50
90.0000
  0
INSERT
  8
17
  2
ROUNDP
 10
53.3400
 20
69.8500
 30
0.0000
 41
1.6650
 42
1.6650
 43
1.0000
 50
90.0000
  0
INSERT
  8
17
  2
ROUNDP
 10
53.3400
 20
69.8500
 30
0.0000
 41
1.6650
 42
1.6650
 43
1.0000
 50
90.0000
  0
INSERT
  8
17
  2
ROUNDP
 10
53.3400
 20
72.3900
 30
0.0000
 41
1.6650
 42
1.6650
 43
1.0000
 50
90.0000
  0
INSERT
  8
17
  2
ROUNDP
 10
53.3400
 20
72.3900
 30
0.0000
 41
1.6650
 42
1.6650
 43
1.0000
 50
90.0000
  0
INSERT
  8
17
  2
ROUNDP
 10
53.3400
 20
74.9300
 30
0.0000
 41
1.6650
 42
1.6650
 43
1.0000
 50
90.0000
  0
INSERT
  8
17
  2
ROUNDP
 10
53.3400
 20
74.9300
 30
0.0000
 41
1.6650
 42
1.6650
 43
1.0000
 50
90.0000
  0
INSERT
  8
17
  2
ROUNDP
 10
53.3400
 20
77.4700
 30
0.0000
 41
1.6650
 42
1.6650
 43
1.0000
 50
90.0000
  0
INSERT
  8
17
  2
ROUNDP
 10
53.3400
 20
77.4700
 30
0.0000
 41
1.6650
 42
1.6650
 43
1.0000
 50
90.0000
  0
INSERT
  8
17
  2
ROUNDP
 10
53.3400
 20
80.0100
 30
0.0000
 41
1.6650
 42
1.6650
 43
1.0000
 50
90.0000
  0
INSERT
  8
17
  2
ROUNDP
 10
53.3400
 20
80.0100
 30
0.0000
 41
1.6650
 42
1.6650
 43
1.0000
 50
90.0000
  0
INSERT
  8
17
  2
ROUNDP
 10
40.8940
 20
57.1500
 30
0.0000
 41
3.8100
 42
3.8100
 43
1.0000
 50
90.0000
  0
INSERT
  8
17
  2
ROUNDP
 10
40.8940
 20
57.1500
 30
0.0000
 41
3.8100
 42
3.8100
 43
1.0000
 50
90.0000
  0
INSERT
  8
17
  2
ROUNDP
 10
40.8940
 20
80.0100
 30
0.0000
 41
3.8100
 42
3.8100
 43
1.0000
 50
90.0000
  0
INSERT
  8
17
  2
ROUNDP
 10
40.8940
 20
80.0100
 30
0.0000
 41
3.8100
 42
3.8100
 43
1.0000
 50
90.0000
  0
INSERT
  8
17
  2
LONGP100
 10
40.6400
 20
64.7700
 30
0.0000
 41
1.5240
 42
1.5240
 43
1.0000
 50
180.0000
  0
INSERT
  8
17
  2
LONGP100
 10
40.6400
 20
64.7700
 30
0.0000
 41
1.5240
 42
1.5240
 43
1.0000
 50
180.0000
  0
INSERT
  8
17
  2
LONGP100
 10
40.6400
 20
67.3100
 30
0.0000
 41
1.5240
 42
1.5240
 43
1.0000
 50
180.0000
  0
INSERT
  8
17
  2
LONGP100
 10
40.6400
 20
67.3100
 30
0.0000
 41
1.5240
 42
1.5240
 43
1.0000
 50
180.0000
  0
INSERT
  8
17
  2
LONGP100
 10
40.6400
 20
69.8500
 30
0.0000
 41
1.5240
 42
1.5240
 43
1.0000
 50
180.0000
  0
INSERT
  8
17
  2
LONGP100
 10
40.6400
 20
69.8500
 30
0.0000
 41
1.5240
 42
1.5240
 43
1.0000
 50
180.0000
  0
INSERT
  8
17
  2
LONGP100
 10
40.6400
 20
72.3900
 30
0.0000
 41
1.5240
 42
1.5240
 43
1.0000
 50
180.0000
  0
INSERT
  8
17
  2
LONGP100
 10
40.6400
 20
72.3900
 30
0.0000
 41
1.5240
 42
1.5240
 43
1.0000
 50
180.0000
  0
INSERT
  8
17
  2
LONGP100
 10
40.6400
 20
74.9300
 30
0.0000
 41
1.5240
 42
1.5240
 43
1.0000
 50
180.0000
  0
INSERT
  8
17
  2
LONGP100
 10
40.6400
 20
74.9300
 30
0.0000
 41
1.5240
 42
1.5240
 43
1.0000
 50
180.0000
  0
INSERT
  8
17
  2
LONGP100
 10
30.4800
 20
64.7700
 30
0.0000
 41
1.5240
 42
1.5240
 43
1.0000
 50
180.0000
  0
INSERT
  8
17
  2
LONGP100
 10
30.4800
 20
64.7700
 30
0.0000
 41
1.5240
 42
1.5240
 43
1.0000
 50
180.0000
  0
INSERT
  8
17
  2
LONGP100
 10
30.4800
 20
67.3100
 30
0.0000
 41
1.5240
 42
1.5240
 43
1.0000
 50
180.0000
  0
INSERT
  8
17
  2
LONGP100
 10
30.4800
 20
67.3100
 30
0.0000
 41
1.5240
 42
1.5240
 43
1.0000
 50
180.0000
  0
INSERT
  8
17
  2
LONGP100
 10
30.4800
 20
69.8500
 30
0.0000
 41
1.5240
 42
1.5240
 43
1.0000
 50
180.0000
  0
INSERT
  8
17
  2
LONGP100
 10
30.4800
 20
69.8500
 30
0.0000
 41
1.5240
 42
1.5240
 43
1.0000
 50
180.0000
  0
INSERT
  8
17
  2
LONGP100
 10
30.4800
 20
72.3900
 30
0.0000
 41
1.5240
 42
1.5240
 43
1.0000
 50
180.0000
  0
INSERT
  8
17
  2
LONGP100
 10
30.4800
 20
72.3900
 30
0.0000
 41
1.5240
 42
1.5240
 43
1.0000
 50
180.0000
  0
INSERT
  8
17
  2
LONGP100
 10
90.1700
 20
77.4700
 30
0.0000
 41
1.5240
 42
1.5240
 43
1.0000
 50
0.0000
  0
INSERT
  8
17
  2
LONGP100
 10
90.1700
 20
77.4700
 30
0.0000
 41
1.5240
 42
1.5240
 43
1.0000
 50
0.0000
  0
INSERT
  8
17
  2
LONGP100
 10
90.1700
 20
74.9300
 30
0.0000
 41
1.5240
 42
1.5240
 43
1.0000
 50
0.0000
  0
INSERT
  8
17
  2
LONGP100
 10
90.1700
 20
74.9300
 30
0.0000
 41
1.5240
 42
1.5240
 43
1.0000
 50
0.0000
  0
INSERT
  8
17
  2
LONGP100
 10
90.1700
 20
72.3900
 30
0.0000
 41
1.5240
 42
1.5240
 43
1.0000
 50
0.0000
  0
INSERT
  8
17
  2
LONGP100
 10
90.1700
 20
72.3900
 30
0.0000
 41
1.5240
 42
1.5240
 43
1.0000
 50
0.0000
  0
INSERT
  8
17
  2
LONGP100
 10
90.1700
 20
69.8500
 30
0.0000
 41
1.5240
 42
1.5240
 43
1.0000
 50
0.0000
  0
INSERT
  8
17
  2
LONGP100
 10
90.1700
 20
69.8500
 30
0.0000
 41
1.5240
 42
1.5240
 43
1.0000
 50
0.0000
  0
INSERT
  8
17
  2
LONGP100
 10
90.1700
 20
67.3100
 30
0.0000
 41
1.5240
 42
1.5240
 43
1.0000
 50
0.0000
  0
INSERT
  8
17
  2
LONGP100
 10
90.1700
 20
67.3100
 30
0.0000
 41
1.5240
 42
1.5240
 43
1.0000
 50
0.0000
  0
INSERT
  8
17
  2
LONGP100
 10
90.1700
 20
64.7700
 30
0.0000
 41
1.5240
 42
1.5240
 43
1.0000
 50
0.0000
  0
INSERT
  8
17
  2
LONGP100
 10
90.1700
 20
64.7700
 30
0.0000
 41
1.5240
 42
1.5240
 43
1.0000
 50
0.0000
  0
INSERT
  8
17
  2
LONGP100
 10
90.1700
 20
62.2300
 30
0.0000
 41
1.5240
 42
1.5240
 43
1.0000
 50
0.0000
  0
INSERT
  8
17
  2
LONGP100
 10
90.1700
 20
62.2300
 30
0.0000
 41
1.5240
 42
1.5240
 43
1.0000
 50
0.0000
  0
INSERT
  8
17
  2
LONGP100
 10
90.1700
 20
59.6900
 30
0.0000
 41
1.5240
 42
1.5240
 43
1.0000
 50
0.0000
  0
INSERT
  8
17
  2
LONGP100
 10
90.1700
 20
59.6900
 30
0.0000
 41
1.5240
 42
1.5240
 43
1.0000
 50
0.0000
  0
INSERT
  8
17
  2
OCTAGONP
 10
81.2800
 20
54.6100
 30
0.0000
 41
1.9812
 42
1.9812
 43
1.0000
 50
90.0000
  0
INSERT
  8
17
  2
OCTAGONP
 10
81.2800
 20
54.6100
 30
0.0000
 41
1.9812
 42
1.9812
 43
1.0000
 50
90.0000
  0
INSERT
  8
17
  2
OCTAGONP
 10
81.2800
 20
59.6900
 30
0.0000
 41
1.9812
 42
1.9812
 43
1.0000
 50
90.0000
  0
INSERT
  8
17
  2
OCTAGONP
 10
81.2800
 20
59.6900
 30
0.0000
 41
1.9812
 42
1.9812
 43
1.0000
 50
90.0000
  0
INSERT
  8
17
  2
OCTAGONP
 10
71.1200
 20
57.1500
 30
0.0000
 41
1.9812
 42
1.9812
 43
1.0000
 50
90.0000
  0
INSERT
  8
17
  2
OCTAGONP
 10
71.1200
 20
57.1500
 30
0.0000
 41
1.9812
 42
1.9812
 43
1.0000
 50
90.0000
  0
INSERT
  8
17
  2
OCTAGONP
 10
69.8500
 20
62.2300
 30
0.0000
 41
1.9812
 42
1.9812
 43
1.0000
 50
90.0000
  0
INSERT
  8
17
  2
OCTAGONP
 10
69.8500
 20
62.2300
 30
0.0000
 41
1.9812
 42
1.9812
 43
1.0000
 50
90.0000
  0
INSERT
  8
17
  2
OCTAGONP
 10
69.8500
 20
67.3100
 30
0.0000
 41
1.9812
 42
1.9812
 43
1.0000
 50
90.0000
  0
INSERT
  8
17
  2
OCTAGONP
 10
69.8500
 20
67.3100
 30
0.0000
 41
1.9812
 42
1.9812
 43
1.0000
 50
90.0000
  0
INSERT
  8
17
  2
OCTAGONP
 10
59.6900
 20
64.7700
 30
0.0000
 41
1.9812
 42
1.9812
 43
1.0000
 50
90.0000
  0
INSERT
  8
17
  2
OCTAGONP
 10
59.6900
 20
64.7700
 30
0.0000
 41
1.9812
 42
1.9812
 43
1.0000
 50
90.0000
  0
INSERT
  8
17
  2
OCTAGONP
 10
81.2800
 20
69.8500
 30
0.0000
 41
1.9812
 42
1.9812
 43
1.0000
 50
90.0000
  0
INSERT
  8
17
  2
OCTAGONP
 10
81.2800
 20
69.8500
 30
0.0000
 41
1.9812
 42
1.9812
 43
1.0000
 50
90.0000
  0
INSERT
  8
17
  2
OCTAGONP
 10
81.2800
 20
74.9300
 30
0.0000
 41
1.9812
 42
1.9812
 43
1.0000
 50
90.0000
  0
INSERT
  8
17
  2
OCTAGONP
 10
81.2800
 20
74.9300
 30
0.0000
 41
1.9812
 42
1.9812
 43
1.0000
 50
90.0000
  0
INSERT
  8
17
  2
OCTAGONP
 10
71.1200
 20
72.3900
 30
0.0000
 41
1.9812
 42
1.9812
 43
1.0000
 50
90.0000
  0
INSERT
  8
17
  2
OCTAGONP
 10
71.1200
 20
72.3900
 30
0.0000
 41
1.9812
 42
1.9812
 43
1.0000
 50
90.0000
  0
INSERT
  8
17
  2
OCTAGONP
 10
69.8500
 20
77.4700
 30
0.0000
 41
1.9812
 42
1.9812
 43
1.0000
 50
90.0000
  0
INSERT
  8
17
  2
OCTAGONP
 10
69.8500
 20
77.4700
 30
0.0000
 41
1.9812
 42
1.9812
 43
1.0000
 50
90.0000
  0
INSERT
  8
17
  2
OCTAGONP
 10
69.8500
 20
82.5500
 30
0.0000
 41
1.9812
 42
1.9812
 43
1.0000
 50
90.0000
  0
INSERT
  8
17
  2
OCTAGONP
 10
69.8500
 20
82.5500
 30
0.0000
 41
1.9812
 42
1.9812
 43
1.0000
 50
90.0000
  0
INSERT
  8
17
  2
OCTAGONP
 10
59.6900
 20
80.0100
 30
0.0000
 41
1.9812
 42
1.9812
 43
1.0000
 50
90.0000
  0
INSERT
  8
17
  2
OCTAGONP
 10
59.6900
 20
80.0100
 30
0.0000
 41
1.9812
 42
1.9812
 43
1.0000
 50
90.0000
  0
ENDSEC
  0
EOF
